<svg width="24" height="24" viewBox="0 0 24 24" fill="none" xmlns="http://www.w3.org/2000/svg">
<path fill-rule="evenodd" clip-rule="evenodd" d="M7.94453 3.44101L6.66333 1.90521L2.05603 5.74881L3.33713 7.28461L7.94453 3.44101ZM17.3365 1.90581L21.9439 5.74941L20.6627 7.28521L16.0553 3.44161L17.3365 1.90581ZM12.5 8.09481H11V14.0948L15.75 16.9448L16.5 15.7148L12.5 13.3448V8.09481ZM12 4.09481C7.03003 4.09481 3.00003 8.12481 3.00003 13.0948C3.00003 18.0648 7.03003 22.0948 12 22.0948C16.97 22.0948 21 18.0648 21 13.0948C21 8.12481 16.97 4.09481 12 4.09481ZM5.00003 13.0948C5.00003 16.9548 8.14003 20.0948 12 20.0948C15.86 20.0948 19 16.9548 19 13.0948C19 9.23481 15.86 6.09481 12 6.09481C8.14003 6.09481 5.00003 9.23481 5.00003 13.0948Z" fill="#5D5FEF" stroke="#FFCA28"/>
</svg>
