<svg width="24" height="24" viewBox="0 0 24 24" fill="none" xmlns="http://www.w3.org/2000/svg">
<path fill-rule="evenodd" clip-rule="evenodd" d="M7.94465 3.44107L6.66345 1.90527L2.05615 5.74887L3.33725 7.28467L7.94465 3.44107ZM17.3367 1.90587L21.9441 5.74947L20.6629 7.28527L16.0555 3.44167L17.3367 1.90587ZM12.5002 8.09487H11.0002V14.0949L15.7502 16.9449L16.5002 15.7149L12.5002 13.3449V8.09487ZM12.0002 4.09487C7.03015 4.09487 3.00015 8.12487 3.00015 13.0949C3.00015 18.0649 7.03015 22.0949 12.0002 22.0949C16.9702 22.0949 21.0002 18.0649 21.0002 13.0949C21.0002 8.12487 16.9702 4.09487 12.0002 4.09487ZM5.00015 13.0949C5.00015 16.9549 8.14015 20.0949 12.0002 20.0949C15.8602 20.0949 19.0002 16.9549 19.0002 13.0949C19.0002 9.23487 15.8602 6.09487 12.0002 6.09487C8.14015 6.09487 5.00015 9.23487 5.00015 13.0949Z" fill="#0F172A"/>
</svg>
