<svg width="24" height="24" viewBox="0 0 24 24" fill="none" xmlns="http://www.w3.org/2000/svg">
<path fill-rule="evenodd" clip-rule="evenodd" d="M7.94465 3.44101L6.66345 1.90521L2.05615 5.74881L3.33725 7.28461L7.94465 3.44101ZM17.3367 1.90581L21.9441 5.74941L20.6629 7.28521L16.0555 3.44161L17.3367 1.90581ZM12.5002 8.09481H11.0002V14.0948L15.7502 16.9448L16.5002 15.7148L12.5002 13.3448V8.09481ZM12.0002 4.09481C7.03015 4.09481 3.00015 8.12481 3.00015 13.0948C3.00015 18.0648 7.03015 22.0948 12.0002 22.0948C16.9702 22.0948 21.0002 18.0648 21.0002 13.0948C21.0002 8.12481 16.9702 4.09481 12.0002 4.09481ZM5.00015 13.0948C5.00015 16.9548 8.14015 20.0948 12.0002 20.0948C15.8602 20.0948 19.0002 16.9548 19.0002 13.0948C19.0002 9.23481 15.8602 6.09481 12.0002 6.09481C8.14015 6.09481 5.00015 9.23481 5.00015 13.0948Z" fill="#EF5DA8"/>
</svg>
