<svg width="16" height="14" viewBox="0 0 16 14" fill="none" xmlns="http://www.w3.org/2000/svg">
<path d="M7.79675 0.828979C3.49745 0.828979 0 3.74474 0 7.32898C0 10.9132 3.49745 13.829 7.79675 13.829C12.096 13.829 15.5935 10.9132 15.5935 7.32898C15.5935 3.74474 12.096 0.828979 7.79675 0.828979ZM11.5048 10.6911C11.3781 10.7967 11.2118 10.8498 11.0454 10.8498C10.8791 10.8498 10.7127 10.7967 10.5861 10.6911L7.33741 7.98279C7.21523 7.88152 7.14706 7.74386 7.14706 7.59985V4.07898C7.14706 3.77945 7.43806 3.53735 7.79675 3.53735C8.15544 3.53735 8.44644 3.77945 8.44644 4.07898V7.3756L11.5048 9.92517C11.7588 10.137 11.7588 10.4793 11.5048 10.6911Z" fill="black"/>
</svg>
