<svg width="24" height="26" viewBox="0 0 24 26" fill="none" xmlns="http://www.w3.org/2000/svg">
<path d="M23.3109 11.3087C23.3104 11.3082 23.3098 11.3076 23.3093 11.307L13.9366 0.701416C13.5371 0.249146 13.0059 0 12.441 0C11.876 0 11.3448 0.248947 10.9451 0.701218L1.57735 11.3014C1.57419 11.305 1.57104 11.3087 1.56788 11.3123C0.747486 12.246 0.748888 13.7609 1.57192 14.6922C1.94793 15.1179 2.44455 15.3645 2.97553 15.3903C2.99709 15.3927 3.01883 15.3939 3.04074 15.3939H3.4143V23.1989C3.4143 24.7434 4.52482 26 5.89005 26H9.55694C9.92858 26 10.2301 25.659 10.2301 25.2383V19.1191C10.2301 18.4144 10.7367 17.8411 11.3595 17.8411H13.5224C14.1452 17.8411 14.6518 18.4144 14.6518 19.1191V25.2383C14.6518 25.659 14.9532 26 15.325 26H18.9919C20.3571 26 21.4676 24.7434 21.4676 23.1989V15.3939H21.814C22.3788 15.3939 22.91 15.1449 23.3098 14.6926C24.1337 13.7597 24.1341 12.2422 23.3109 11.3087Z" fill="white"/>
</svg>
