<svg width="22" height="23" viewBox="0 0 22 23" fill="none" xmlns="http://www.w3.org/2000/svg">
<path d="M1 4.6H20.2M8.2 16.6V9.4M13 16.6V9.4M15.4 21.4H5.8C4.47452 21.4 3.4 20.3255 3.4 19V5.8C3.4 5.13726 3.93726 4.6 4.6 4.6H16.6C17.2627 4.6 17.8 5.13726 17.8 5.8V19C17.8 20.3255 16.7255 21.4 15.4 21.4ZM8.2 4.6H13C13.6627 4.6 14.2 4.06274 14.2 3.4V2.2C14.2 1.53726 13.6627 1 13 1H8.2C7.53726 1 7 1.53726 7 2.2V3.4C7 4.06274 7.53726 4.6 8.2 4.6Z" stroke="black" stroke-width="2" stroke-linecap="round" stroke-linejoin="round"/>
</svg>
